<svg xmlns="http://www.w3.org/2000/svg" width="67.243" height="54.306" viewBox="0 0 67.243 54.306">
    <g data-name="Groupe 447">
        <path data-name="Tracé 1669" d="M0 0h29.886v29.886H0z" style="fill:none" transform="translate(37.357 24.42)"/>
        <path data-name="Tracé 1670" d="M6.736 3H3v3.736A3.731 3.731 0 0 0 6.736 3zM16.7 3h-2.49A11.208 11.208 0 0 1 3 14.207V16.7A13.7 13.7 0 0 0 16.7 3zm-4.983 0H9.226A6.228 6.228 0 0 1 3 9.226v2.49A8.71 8.71 0 0 0 11.717 3zm0 22.414h2.49a11.208 11.208 0 0 1 11.207-11.207v-2.49a13.706 13.706 0 0 0-13.697 13.697zm9.962 0h3.736v-3.735a3.731 3.731 0 0 0-3.736 3.735zm-4.981 0h2.49a6.228 6.228 0 0 1 6.226-6.226V16.7a8.71 8.71 0 0 0-8.714 8.714z" transform="translate(38.093 25.156)" style="fill:#2b6187"/>
        <g>
            <path data-name="Tracé 892" d="M0 0h52.3v52.3H0zm0 0h52.3v52.3H0z" style="fill:none"/>
            <path data-name="Tracé 893" d="m15.254 15.407 3.116 3.116a11 11 0 0 1 15.559 0l3.116-3.116a15.415 15.415 0 0 0-21.792 0zM26.15 2.179a23.891 23.891 0 0 0-16.889 7l3.073 3.073a19.571 19.571 0 0 1 27.632 0l3.072-3.073a23.891 23.891 0 0 0-16.888-7zm6.232 19.634-12.465-.022a2.483 2.483 0 0 0-2.484 2.488v21.16a2.483 2.483 0 0 0 2.484 2.484H32.36a2.483 2.483 0 0 0 2.484-2.484v-21.16a2.433 2.433 0 0 0-2.462-2.462zm.305 21.77H19.611V26.15h13.076z"/>
        </g>
    </g>
</svg>
